<?xml version="1.0" encoding="UTF-8"?>
<svg id="Vrstva_2" data-name="Vrstva 2" xmlns="http://www.w3.org/2000/svg" viewBox="0 0 1612.08 459.19">
  <defs>
    <style>
      .cls-1, .cls-2, .cls-3 {
        stroke-width: 0px;
      }

      .cls-2 {
        fill: #27285a;
      }

      .cls-3 {
        fill: #fff;
      }
    </style>
  </defs>
  <g id="Vrstva_1-2" data-name="Vrstva 1">
    <g>
      <g id="Obrys">
        <g>
          <path class="cls-2" d="M222.36,325.31c5.98,8.34,11.47,16.79,17.53,24.97,18.88,25.73,40.01,50.98,68.63,65.98,7.16,3.75,17.31,7.83,27.33,8.52-1.48,4.16-8.41,5.53-15.88,5.53-6.01,0-12.37-.89-16.53-1.92-38.92-10.52-69.31-44.6-78.59-82.28-1.61-6.83-2.63-13.77-2.49-20.8h0Z"/>
          <path class="cls-2" d="M202.27,349.9c14.43,15.98,26.08,34.52,38.9,51.4,6.14,8.24,12.44,16.2,19.24,23.84,7.09,7.85,14.5,15.48,23.72,21.21-1.83.32-3.67.47-5.51.47-10.17,0-20.31-4.54-28.67-9.74-28.49-18.52-47.62-54.03-47.69-87.17h0Z"/>
          <path class="cls-2" d="M188.65,369.54c7.73,13.38,13.53,27.97,19.75,41.8,2.91,6.61,5.83,13.12,8.95,19.66,3.35,6.93,6.73,13.78,11.66,19.97-.55.04-1.09.06-1.64.06-8.66,0-16.78-5.07-22.9-10.6-18.52-17.26-27.08-47.91-15.82-70.9h0Z"/>
        </g>
      </g>
      <circle class="cls-1" cx="242.18" cy="203.99" r="203.99"/>
      <g>
        <g>
          <path class="cls-3" d="M318.92,434.51c-6.79,0-13.23-1.35-16.47-2.15-38.84-10.5-71.59-44.75-81.56-85.26-1.89-8.02-2.74-15.15-2.61-21.86l.24-12.28,7.15,9.99c2.56,3.57,5.06,7.2,7.47,10.71,3.23,4.7,6.57,9.55,10.02,14.21,21.46,29.25,43.51,50.47,67.41,64.89,6.08,3.43,13.41,6.77,25.67,7.99l8.01.79-5.37,5.99c-4.17,4.64-10.88,7-19.97,7Z"/>
          <path class="cls-1" d="M222.36,325.31c5.98,8.34,11.47,16.79,17.53,24.97,18.88,25.73,40.95,49.3,68.63,65.98,7.36,4.16,15.25,7.33,27.33,8.52-3.82,4.26-10.31,5.64-16.93,5.64-5.56,0-11.22-.97-15.48-2.03-38.92-10.52-69.31-44.6-78.59-82.28-1.61-6.83-2.63-13.77-2.49-20.8M214.68,300.59l-.47,24.56c-.14,7.05.75,14.52,2.71,22.83v.04s.02.04.02.04c4.98,20.2,15.4,39.21,30.14,54.95,15.25,16.29,34.01,27.79,54.23,33.25l.08.02.08.02c3.42.85,10.23,2.27,17.45,2.27,10.29,0,18.03-2.81,23-8.35l10.74-11.98-16.01-1.58c-11.48-1.13-18.34-4.24-24.02-7.45-23.42-14.13-45.06-34.99-66.17-63.76-3.43-4.63-6.6-9.24-9.96-14.12-2.43-3.53-4.94-7.17-7.52-10.78l-14.31-19.97h0Z"/>
        </g>
        <g>
          <path class="cls-3" d="M278.62,450.89c-9.41,0-19.78-3.48-30.82-10.36-29.62-19.26-49.53-55.66-49.61-90.62l-.02-10.63,7.12,7.89c9.7,10.74,18.19,22.66,26.4,34.19,4.13,5.8,8.41,11.8,12.72,17.47,6.98,9.35,13.02,16.84,19.04,23.59,6.23,6.9,13.67,14.76,22.83,20.46l9.06,5.64-10.51,1.84c-2.01.35-4.1.53-6.21.53Z"/>
          <path class="cls-1" d="M202.27,349.9c14.43,15.98,26.08,34.52,38.9,51.4,6.14,8.24,12.44,16.2,19.24,23.84,7.09,7.85,14.5,15.48,23.72,21.21-1.83.32-3.67.47-5.51.47-10.17,0-20.31-4.54-28.67-9.74-28.49-18.52-47.62-54.03-47.69-87.17M194.07,328.66l.05,21.26c.08,36.28,20.73,74.05,51.4,93.99l.07.04.07.04c11.69,7.28,22.79,10.97,32.98,10.97,2.35,0,4.67-.2,6.91-.59l21.03-3.68-18.13-11.27c-8.7-5.41-15.9-13.02-21.96-19.73-5.93-6.65-11.9-14.05-18.77-23.26l-.02-.03-.02-.03c-4.27-5.62-8.53-11.6-12.65-17.38-8.28-11.62-16.85-23.64-26.7-34.55l-14.25-15.78h0Z"/>
        </g>
        <g>
          <path class="cls-3" d="M227.37,455.11c-10.52,0-19.74-6.33-25.63-11.65-21.09-19.66-28.27-52.19-16.74-75.72l3.36-6.86,3.83,6.62c6.03,10.43,10.9,21.57,15.6,32.35,1.44,3.3,2.88,6.58,4.33,9.83,2.54,5.77,5.58,12.59,8.91,19.58,3.58,7.42,6.69,13.56,11.17,19.18l4.81,6.03-7.69.58c-.64.05-1.3.07-1.94.07Z"/>
          <path class="cls-1" d="M188.65,369.54c7.73,13.38,13.53,27.97,19.75,41.8,2.91,6.61,5.83,13.12,8.95,19.66,3.35,6.93,6.73,13.78,11.66,19.97-.55.04-1.09.06-1.64.06-8.66,0-16.78-5.07-22.9-10.6-18.52-17.26-27.08-47.91-15.82-70.9M188.06,352.22l-6.73,13.73c-6.15,12.55-7.52,27.85-3.87,43.08,3.46,14.43,11.08,27.7,21.44,37.36l.05.04.05.04c6.42,5.79,16.55,12.7,28.36,12.7.75,0,1.51-.03,2.25-.08l15.38-1.16-9.61-12.06c-4.22-5.29-7.21-11.22-10.69-18.43-3.29-6.91-6.31-13.69-8.83-19.41v-.03s-.03-.03-.03-.03c-1.45-3.22-2.91-6.56-4.32-9.79-4.75-10.88-9.66-22.13-15.81-32.75l-7.65-13.23h0Z"/>
        </g>
      </g>
      <path class="cls-3" d="M343.46,89.86c-3.54-3.41-17.79-14.61-47.97-9.43-31.83,5.47-49.83,30.81-50.58,31.89l-5.47,7.84,8.81-3.71c10.88-4.58,21.61-8.78,28.27-11.35-1.12,2.54-2.35,5.77-3.45,9.61-2.26,7.9-8.56,24.46-25.42,46.61-7.56,9.93-40.88,69.48-63.01,135.22-4.59,13.64-13.95,65.18-13.95,66.76v9.31l5.08-7.8c.18-.28,18.22-27.97,20.83-31.79,29.19-42.81,56.64-56.24,78.71-67.03,13.32-6.52,24.83-12.14,33.6-22.64,36.6-43.8,28.36-82.44,24.4-101.01-.76-3.56-1.62-7.59-1.31-8.6,9.74-29.35,32.74-37.35,33.06-37.46l14.2-4.64-35.8-1.79Z"/>
      <g>
        <path class="cls-1" d="M579.51,91.84v105.94h-27.54v-105.94h27.54Z"/>
        <path class="cls-1" d="M601.71,197.78v-105.94h27.54l50.86,64.78v-64.78h27.4v105.94h-27.4l-50.86-64.78v64.78h-27.54Z"/>
        <path class="cls-1" d="M729.71,91.84h40.75c7.21,0,13.98,1.45,20.3,4.35,6.32,2.91,11.85,6.77,16.58,11.59,4.73,4.83,8.45,10.45,11.17,16.86,2.72,6.42,4.08,13.14,4.08,20.16s-1.33,13.61-4,20.02c-2.67,6.42-6.37,12.06-11.1,16.93-4.73,4.87-10.26,8.76-16.58,11.66-6.32,2.9-13.14,4.35-20.44,4.35h-40.75v-105.94ZM757.25,174.46h6.32c4.78,0,9.04-.75,12.79-2.25,3.75-1.5,6.91-3.56,9.48-6.18,2.58-2.62,4.54-5.74,5.9-9.34,1.36-3.6,2.04-7.56,2.04-11.87s-.7-8.15-2.11-11.8c-1.4-3.65-3.39-6.79-5.97-9.41-2.58-2.62-5.74-4.68-9.48-6.18-3.75-1.5-7.96-2.25-12.65-2.25h-6.32v59.3Z"/>
        <path class="cls-1" d="M900.43,115.16h-32.74v17.7h30.91v23.33h-30.91v18.27h32.74v23.32h-60.28v-105.94h60.28v23.32Z"/>
        <path class="cls-1" d="M947.78,197.78h-27.54v-105.94h43.84c11.9,0,21.01,3.09,27.33,9.27,6.32,6.18,9.48,14.9,9.48,26.14s-3.16,19.95-9.48,26.13c-6.32,6.18-15.43,9.27-27.33,9.27h-16.3v35.13ZM947.78,140.45h9.13c10.12,0,15.17-4.4,15.17-13.21s-5.06-13.21-15.17-13.21h-9.13v26.42Z"/>
        <path class="cls-1" d="M1075.78,115.16h-32.74v17.7h30.91v23.33h-30.91v18.27h32.74v23.32h-60.28v-105.94h60.28v23.32Z"/>
        <path class="cls-1" d="M1095.6,197.78v-105.94h27.54l50.86,64.78v-64.78h27.4v105.94h-27.4l-50.86-64.78v64.78h-27.54Z"/>
        <path class="cls-1" d="M1223.6,91.84h40.75c7.21,0,13.98,1.45,20.3,4.35,6.32,2.91,11.85,6.77,16.58,11.59,4.73,4.83,8.45,10.45,11.17,16.86,2.72,6.42,4.08,13.14,4.08,20.16s-1.33,13.61-4,20.02c-2.67,6.42-6.37,12.06-11.1,16.93-4.73,4.87-10.26,8.76-16.58,11.66-6.32,2.9-13.14,4.35-20.44,4.35h-40.75v-105.94ZM1251.14,174.46h6.32c4.78,0,9.04-.75,12.79-2.25s6.91-3.56,9.48-6.18c2.58-2.62,4.54-5.74,5.9-9.34,1.36-3.6,2.04-7.56,2.04-11.87s-.7-8.15-2.11-11.8c-1.4-3.65-3.39-6.79-5.97-9.41-2.58-2.62-5.74-4.68-9.48-6.18-3.75-1.5-7.96-2.25-12.65-2.25h-6.32v59.3Z"/>
        <path class="cls-1" d="M1394.32,115.16h-32.74v17.7h30.91v23.33h-30.91v18.27h32.74v23.32h-60.28v-105.94h60.28v23.32Z"/>
        <path class="cls-1" d="M1414.13,197.78v-105.94h27.54l50.86,64.78v-64.78h27.4v105.94h-27.4l-50.86-64.78v64.78h-27.54Z"/>
        <path class="cls-1" d="M1582.32,115.16v82.62h-27.54v-82.62h-22.62v-23.32h72.78v23.32h-22.62Z"/>
      </g>
      <g>
        <path class="cls-1" d="M573.52,261.58l19.69,27.11h-11.74l-18.17-26.04h-1.73v26.04h-9.6v-63.61h11.25c8.4,0,14.47,1.58,18.21,4.74,4.12,3.52,6.18,8.16,6.18,13.93,0,4.51-1.29,8.38-3.87,11.62-2.58,3.24-5.99,5.31-10.22,6.22ZM561.57,254.29h3.05c9.09,0,13.64-3.48,13.64-10.43,0-6.51-4.42-9.77-13.27-9.77h-3.42v20.19Z"/>
        <path class="cls-1" d="M749.26,234.1h-25.5v15.29h24.76v9.02h-24.76v21.26h25.5v9.02h-35.1v-63.61h35.1v9.02Z"/>
        <path class="cls-1" d="M920.26,228.5v11.37c-5.55-4.64-11.29-6.96-17.22-6.96-6.54,0-12.04,2.35-16.52,7.04-4.51,4.67-6.76,10.39-6.76,17.14s2.25,12.31,6.76,16.89c4.5,4.59,10.02,6.88,16.56,6.88,3.38,0,6.25-.55,8.61-1.65,1.32-.55,2.68-1.29,4.1-2.23s2.9-2.06,4.47-3.38v11.58c-5.49,3.1-11.26,4.66-17.31,4.66-9.09,0-16.85-3.17-23.28-9.52-6.4-6.4-9.6-14.12-9.6-23.16,0-8.1,2.68-15.33,8.03-21.67,6.59-7.77,15.12-11.66,25.59-11.66,5.71,0,11.23,1.55,16.56,4.66Z"/>
        <path class="cls-1" d="M1040.17,256.6c0-8.95,3.28-16.65,9.85-23.07,6.54-6.43,14.39-9.64,23.57-9.64s16.84,3.24,23.32,9.73c6.51,6.48,9.77,14.27,9.77,23.36s-3.27,16.91-9.81,23.28c-6.57,6.4-14.49,9.6-23.77,9.6-8.22,0-15.59-2.84-22.13-8.53-7.2-6.29-10.79-14.53-10.79-24.72ZM1049.86,256.72c0,7.03,2.36,12.81,7.09,17.35,4.7,4.53,10.12,6.8,16.27,6.8,6.68,0,12.31-2.31,16.89-6.92,4.59-4.67,6.88-10.36,6.88-17.06s-2.27-12.47-6.8-17.06c-4.51-4.61-10.08-6.92-16.73-6.92s-12.21,2.31-16.77,6.92c-4.56,4.56-6.84,10.19-6.84,16.89Z"/>
        <path class="cls-1" d="M1251.68,261.58l19.69,27.11h-11.74l-18.17-26.04h-1.73v26.04h-9.6v-63.61h11.25c8.4,0,14.47,1.58,18.21,4.74,4.12,3.52,6.18,8.16,6.18,13.93,0,4.51-1.29,8.38-3.87,11.62-2.58,3.24-5.99,5.31-10.22,6.22ZM1239.73,254.29h3.05c9.09,0,13.64-3.48,13.64-10.43,0-6.51-4.42-9.77-13.27-9.77h-3.42v20.19Z"/>
        <path class="cls-1" d="M1392.31,288.7v-63.61h13.35c6.4,0,11.45.63,15.16,1.89,3.98,1.24,7.6,3.34,10.83,6.31,6.57,5.99,9.85,13.86,9.85,23.61s-3.42,17.69-10.26,23.73c-3.43,3.02-7.03,5.12-10.79,6.31-3.52,1.18-8.5,1.77-14.95,1.77h-13.19ZM1401.91,279.67h4.33c4.31,0,7.9-.45,10.75-1.36,2.86-.96,5.44-2.49,7.75-4.57,4.72-4.31,7.08-9.93,7.08-16.85s-2.34-12.64-7-16.98c-4.2-3.87-10.4-5.81-18.58-5.81h-4.33v45.57Z"/>
        <path class="cls-1" d="M1600.93,234.56l-7.79,4.61c-1.46-2.53-2.84-4.18-4.16-4.94-1.37-.88-3.15-1.32-5.31-1.32-2.66,0-4.88.76-6.64,2.27-1.76,1.48-2.64,3.35-2.64,5.6,0,3.11,2.31,5.6,6.92,7.5l6.34,2.6c5.16,2.09,8.94,4.64,11.33,7.64,2.39,3.01,3.58,6.69,3.58,11.06,0,5.85-1.95,10.69-5.85,14.5-3.93,3.85-8.81,5.77-14.63,5.77-5.52,0-10.08-1.64-13.68-4.9-3.54-3.27-5.75-7.87-6.63-13.8l9.72-2.14c.44,3.73,1.21,6.32,2.31,7.74,1.98,2.75,4.86,4.12,8.65,4.12,2.99,0,5.48-1,7.46-3.01,1.98-2,2.97-4.55,2.97-7.62,0-1.23-.17-2.37-.52-3.4-.34-1.03-.88-1.98-1.61-2.84-.73-.86-1.67-1.68-2.82-2.43s-2.53-1.48-4.12-2.16l-6.14-2.56c-8.71-3.68-13.06-9.06-13.06-16.15,0-4.78,1.83-8.78,5.48-11.99,3.65-3.24,8.2-4.86,13.64-4.86,7.33,0,13.06,3.57,17.18,10.71Z"/>
      </g>
      <g>
        <g>
          <path class="cls-3" d="M119.44,203.08c-32.48,0-64.02-9.57-86.53-26.26-13.87-10.59-22.11-21.72-24.52-33.12l-2.2-10.39,8.59,6.25c10.75,7.82,23.62,12.27,34.98,16.2,16.78,5.65,36.46,10.51,53.81,14.79l2.22.55c3.18.79,6.35,1.57,9.53,2.35,16.64,4.08,33.85,8.3,50.27,14.67l10.34,4.01-10.48,3.64c-13.77,4.78-29.68,7.31-45.99,7.31h0Z"/>
          <path class="cls-1" d="M12.37,142.85c10.93,7.95,23.51,12.42,36.05,16.75,17.68,5.95,38.09,10.92,56.38,15.45,19.85,4.97,40.05,9.4,59.29,16.87-13.69,4.75-29.02,7.08-44.66,7.08-30.19,0-61.49-8.7-84.1-25.46-9.94-7.59-20.29-18.09-22.96-30.69M0,123.77l4.4,20.77c2.62,12.38,11.36,24.31,25.99,35.48l.05.03.05.03c23.2,17.2,55.62,27.07,88.96,27.07,16.77,0,33.14-2.61,47.33-7.53l20.96-7.28-20.69-8.02c-16.67-6.47-34-10.72-50.77-14.83-3.17-.78-6.34-1.55-9.49-2.34l-2.26-.56c-17.27-4.27-36.83-9.1-53.48-14.7-11.08-3.83-23.63-8.17-33.88-15.63L0,123.77h0Z"/>
        </g>
        <g>
          <path class="cls-3" d="M93.96,253.59c-8.96,0-17.54-1.18-25.51-3.5-14.85-4.59-24.83-11.67-29.73-21.06l-3.69-7.07,7.89,1.15c3.6.52,7.45.78,11.79.78,4.91,0,9.73-.31,14.84-.65l2.16-.14c8.6-.63,17.91-1.44,26.92-2.22,5.14-.45,10.23-.89,15.14-1.29l3.58-.27c10.56-.8,21.49-1.64,32.38-1.64,3.45,0,6.81.08,9.99.25l8.17.43-5.26,6.26c-15.01,17.86-41.32,28.96-68.64,28.96,0,0,0,0,0,0Z"/>
          <path class="cls-1" d="M149.71,221.75c3.26,0,6.52.07,9.78.25-15.25,18.15-41,27.51-65.53,27.51-8.43,0-16.71-1.1-24.37-3.34-10.49-3.24-21.94-8.85-27.26-19.03,4.16.61,8.27.82,12.37.82,5.76,0,11.49-.43,17.26-.79,13.54-.99,28.53-2.4,42.13-3.52,11.8-.89,23.68-1.89,35.62-1.89M149.71,213.6c-11.05,0-22.05.84-32.69,1.65l-3.54.27h-.03s-.03,0-.03,0c-4.91.41-10,.85-15.14,1.29-8.99.78-18.28,1.59-26.89,2.22l-2.12.14c-5.04.33-9.79.64-14.57.64-4.14,0-7.8-.24-11.2-.74l-15.79-2.3,7.38,14.14c5.43,10.4,16.22,18.15,32.08,23.05l.06.02.06.02c8.34,2.43,17.31,3.66,26.65,3.66,13.49,0,27.08-2.61,39.29-7.54,13.12-5.3,24.35-13.21,32.47-22.87l10.52-12.52-16.33-.86c-3.25-.17-6.68-.26-10.21-.26h0Z"/>
        </g>
        <g>
          <path class="cls-3" d="M168.59,265.12c-4.09-31.1,8.31-70.89,16.77-90.13-35.61-5.6-86-29.76-91.9-32.64-20.08-9.7-37.03-22.33-50.36-37.53-14.06-16.03-18.98-29.15-20.45-34.04-1.7-5.68-1.78-9.69-.24-12.26l2.72-4.54,3.69,3.79c42.69,43.84,153.61,88.37,202.17,88.37l8.77-.08-4.85,6.57c-8.41,11.39-51.66,86.07-58.33,112.93l-5.19,20.89-2.81-21.34Z"/>
          <path class="cls-1" d="M25.9,60.61c43.9,45.08,155.71,89.6,205.09,89.6.21,0,.43,0,.64,0-8.62,11.69-52.11,86.59-59,114.37-4.21-32.02,10.08-75.62,18.77-92.91-31.98-3.29-81.99-26.09-96.17-32.99C38.92,111.48,22.11,66.94,25.9,60.61M24.35,47.34l-5.44,9.09c-2.16,3.6-2.21,8.68-.17,15.52,3.26,10.89,11.01,23.85,21.29,35.57,13.7,15.62,31.08,28.58,51.67,38.52,5.67,2.76,52.2,25.06,87.94,32.08-8.44,20.98-18.97,58.02-15.08,87.54l5.62,42.69,10.37-41.79c6.57-26.44,49.33-100.22,57.65-111.49l9.67-13.11-16.3.12h-.58c-22.85,0-61.71-10.44-101.43-27.25-42.71-18.08-78.37-39.91-97.83-59.89l-7.39-7.59h0Z"/>
        </g>
      </g>
      <rect class="cls-1" x="551.97" y="316.23" width="1060.11" height="9.02"/>
    </g>
  </g>
</svg>