<svg version="1.2" xmlns="http://www.w3.org/2000/svg" viewBox="0 0 1613 460" width="1613" height="460">
	<title>dlouhe-modra</title>
	<style>
		.s0 { fill: #27285a } 
		.s1 { fill: #ffffff } 
	</style>
	<g id="Vrstva_1-2">
		<g>
			<path class="s0" d="m242.2 408c-112.8 0-204-91.2-204-204 0-112.8 91.2-204 204-204 112.8 0 204 91.2 204 204 0 112.8-91.2 204-204 204z"/>
			<g>
				<g>
					<path class="s1" d="m318.9 434.5c-6.8 0-13.2-1.3-16.4-2.1-38.9-10.5-71.6-44.8-81.6-85.3-1.9-8-2.7-15.1-2.6-21.9l0.2-12.2 7.2 9.9c2.5 3.6 5 7.2 7.5 10.8 3.2 4.7 6.5 9.5 10 14.2 21.4 29.2 43.5 50.4 67.4 64.9 6.1 3.4 13.4 6.7 25.7 7.9l8 0.8-5.4 6c-4.2 4.7-10.9 7-20 7z"/>
					<path class="s0" d="m214.7 300.6l-0.5 24.5c-0.1 7.1 0.8 14.6 2.7 22.9v0.1c5 20.2 15.4 39.2 30.2 54.9 15.2 16.3 34 27.8 54.2 33.3h0.1 0.1c3.4 0.8 10.2 2.3 17.4 2.3 10.3 0 18.1-2.8 23-8.4l10.8-12-16-1.5c-11.5-1.2-18.4-4.3-24.1-7.5-23.4-14.1-45-35-66.1-63.8-3.5-4.6-6.6-9.2-10-14.1-2.4-3.5-4.9-7.1-7.5-10.8l-14.3-19.9zm7.7 24.7c5.9 8.3 11.4 16.8 17.5 25 18.9 25.7 40.9 49.3 68.6 65.9 7.4 4.2 15.3 7.4 27.3 8.6-3.8 4.2-10.3 5.6-16.9 5.6-5.6 0-11.2-1-15.5-2-38.9-10.5-69.3-44.6-78.6-82.3-1.6-6.8-2.6-13.8-2.4-20.8z"/>
				</g>
				<g>
					<path class="s1" d="m278.6 450.9c-9.4 0-19.8-3.5-30.8-10.4-29.6-19.2-49.5-55.6-49.6-90.6v-10.6l7.1 7.9c9.7 10.7 18.2 22.6 26.4 34.2 4.1 5.8 8.4 11.8 12.7 17.4 7 9.4 13 16.9 19 23.6 6.3 6.9 13.7 14.8 22.9 20.5l9 5.6-10.5 1.9c-2 0.3-4.1 0.5-6.2 0.5z"/>
					<path class="s0" d="m194.1 328.7v21.2c0.1 36.3 20.8 74.1 51.4 94l0.1 0.1h0.1c11.7 7.3 22.7 11 32.9 11q3.6 0 7-0.6l21-3.7-18.1-11.3c-8.7-5.4-15.9-13-22-19.7-5.9-6.7-11.9-14.1-18.8-23.3-4.3-5.7-8.6-11.6-12.7-17.4-8.3-11.6-16.8-23.7-26.7-34.6 0 0-14.2-15.7-14.2-15.7zm8.2 21.2c14.4 16 26.1 34.5 38.9 51.4 6.1 8.2 12.4 16.2 19.2 23.8 7.1 7.9 14.5 15.5 23.7 21.2q-2.7 0.5-5.5 0.5c-10.1 0-20.3-4.5-28.6-9.7-28.5-18.5-47.7-54.1-47.7-87.2"/>
				</g>
				<g>
					<path class="s1" d="m227.4 455.1c-10.6 0-19.8-6.3-25.7-11.6-21.1-19.7-28.2-52.2-16.7-75.8l3.4-6.8 3.8 6.6c6 10.4 10.9 21.6 15.6 32.3q2.1 5 4.3 9.9c2.6 5.8 5.6 12.6 8.9 19.6 3.6 7.4 6.7 13.5 11.2 19.1l4.8 6.1-7.7 0.5q-0.9 0.1-1.9 0.1z"/>
					<path class="s0" d="m188.1 352.2l-6.8 13.8c-6.1 12.5-7.5 27.8-3.8 43 3.4 14.5 11 27.7 21.4 37.4h0.1v0.1c6.4 5.8 16.6 12.7 28.4 12.7q1.1 0 2.2-0.1l15.4-1.2-9.6-12c-4.2-5.3-7.2-11.2-10.7-18.5-3.3-6.9-6.3-13.6-8.8-19.4h-0.1c-1.4-3.2-2.9-6.6-4.3-9.8-4.7-10.9-9.6-22.1-15.8-32.8l-7.7-13.2zm0.6 17.3c7.8 13.4 13.6 28 19.8 41.8 2.9 6.6 5.8 13.2 8.9 19.7 3.4 6.9 6.8 13.8 11.7 20q-0.8 0-1.6 0c-8.7 0-16.8-5-22.9-10.6-18.6-17.2-27.1-47.9-15.9-70.9"/>
				</g>
			</g>
			<path class="s1" d="m343.5 89.9c-3.6-3.5-17.8-14.7-48-9.5-31.8 5.5-49.8 30.8-50.6 31.9l-5.5 7.9 8.9-3.7c10.8-4.6 21.6-8.8 28.2-11.4-1.1 2.5-2.3 5.8-3.4 9.6-2.3 7.9-8.6 24.5-25.4 46.6-7.6 10-40.9 69.5-63.1 135.2-4.5 13.7-13.9 65.2-13.9 66.8v9.3l5.1-7.8c0.2-0.3 18.2-28 20.8-31.8 29.2-42.8 56.6-56.2 78.7-67 13.3-6.5 24.8-12.1 33.6-22.6 36.6-43.8 28.4-82.5 24.4-101.1-0.7-3.5-1.6-7.5-1.3-8.6 9.7-29.3 32.7-37.3 33.1-37.4l14.2-4.7c0 0-35.8-1.7-35.8-1.7z"/>
			<g>
				<path class="s1" d="m579.5 91.8v106h-27.5v-106z"/>
				<path class="s1" d="m601.7 197.8v-106h27.5l50.9 64.8v-64.8h27.4v106h-27.4l-50.9-64.8v64.8z"/>
				<path class="s1" d="m729.7 91.8h40.8q10.8 0 20.3 4.4 9.4 4.4 16.5 11.6 7.1 7.2 11.2 16.8 4.1 9.7 4.1 20.2c0 7-1.3 13.6-4 20q-4 9.6-11.1 17-7.1 7.3-16.6 11.6-9.5 4.4-20.4 4.4h-40.8v-106zm27.6 82.6h6.3q7.1 0 12.8-2.2 5.6-2.3 9.4-6.2 3.9-3.9 5.9-9.3 2.1-5.4 2.1-11.9c0-4.3-0.7-8.1-2.1-11.8q-2.1-5.5-6-9.4-3.9-3.9-9.5-6.2-5.6-2.2-12.6-2.2h-6.3v59.3z"/>
				<path class="s1" d="m900.4 115.2h-32.7v17.7h30.9v23.3h-30.9v18.3h32.7v23.3h-60.3v-106h60.3z"/>
				<path class="s1" d="m947.8 197.8h-27.6v-106h43.9q17.8 0 27.3 9.3 9.5 9.3 9.5 26.1 0 16.9-9.5 26.2-9.5 9.3-27.3 9.2h-16.3zm0-57.3h9.1q15.2 0 15.2-13.2 0-13.2-15.2-13.2h-9.1z"/>
				<path class="s1" d="m1075.8 115.2h-32.8v17.7h31v23.3h-31v18.3h32.8v23.3h-60.3v-106h60.3z"/>
				<path class="s1" d="m1095.6 197.8v-106h27.5l50.9 64.8v-64.8h27.4v106h-27.4l-50.9-64.8v64.8z"/>
				<path class="s1" d="m1223.6 91.8h40.8q10.8 0 20.2 4.4 9.5 4.4 16.6 11.6 7.1 7.2 11.2 16.8 4.1 9.7 4.1 20.2c0 7-1.4 13.6-4 20q-4 9.6-11.1 17-7.1 7.3-16.6 11.6-9.5 4.4-20.4 4.4h-40.8v-106zm27.6 82.6h6.3q7.1 0 12.8-2.2 5.6-2.3 9.4-6.2 3.9-3.9 5.9-9.3 2.1-5.4 2.1-11.9c0-4.3-0.7-8.1-2.1-11.8q-2.1-5.5-6-9.4-3.9-3.9-9.5-6.2-5.6-2.2-12.6-2.2h-6.3v59.3z"/>
				<path class="s1" d="m1394.3 115.2h-32.7v17.7h30.9v23.3h-30.9v18.3h32.7v23.3h-60.3v-106h60.3z"/>
				<path class="s1" d="m1414.1 197.8v-106h27.6l50.8 64.8v-64.8h27.4v106h-27.4l-50.8-64.8v64.8z"/>
				<path class="s1" d="m1582.3 115.2v82.6h-27.5v-82.6h-22.6v-23.4h72.7v23.4z"/>
			</g>
			<g>
				<path class="s1" d="m573.5 261.6l19.7 27.1h-11.7l-18.2-26.1h-1.7v26.1h-9.6v-63.6h11.2q12.6 0 18.2 4.7 6.2 5.3 6.2 13.9 0 6.8-3.9 11.7-3.8 4.8-10.2 6.2zm-11.9-7.3h3q13.7 0 13.7-10.4 0-9.8-13.3-9.8h-3.4v20.2z"/>
				<path class="s1" d="m749.3 234.1h-25.5v15.3h24.7v9h-24.7v21.3h25.5v9h-35.1v-63.6h35.1z"/>
				<path class="s1" d="m920.3 228.5v11.4q-8.4-7-17.3-7-9.8 0-16.5 7-6.7 7.1-6.7 17.2c0 6.7 2.2 12.3 6.7 16.9q6.8 6.9 16.6 6.9 5 0 8.6-1.7 2-0.8 4.1-2.2 2.1-1.4 4.5-3.4v11.6q-8.3 4.6-17.3 4.6-13.7 0-23.3-9.5-9.6-9.6-9.6-23.1 0-12.2 8-21.7 9.9-11.7 25.6-11.7 8.6 0 16.6 4.7z"/>
				<path class="s1" d="m1040.2 256.6q0-13.4 9.8-23.1 9.8-9.6 23.6-9.6c9.2 0 16.8 3.2 23.3 9.7q9.8 9.7 9.8 23.4c0 9.1-3.3 16.9-9.8 23.3q-9.9 9.6-23.8 9.6-12.3 0-22.1-8.6-10.8-9.4-10.8-24.7zm9.7 0.1q0 10.6 7.1 17.4 7 6.8 16.2 6.8 10 0 16.9-6.9 6.9-7 6.9-17.1c0-6.7-2.3-12.5-6.8-17.1q-6.8-6.9-16.7-6.9c-6.7 0-12.2 2.3-16.8 6.9q-6.8 6.9-6.8 16.9z"/>
				<path class="s1" d="m1251.7 261.6l19.7 27.1h-11.8l-18.1-26.1h-1.8v26.1h-9.6v-63.6h11.3q12.6 0 18.2 4.7 6.2 5.3 6.2 13.9 0 6.8-3.9 11.7-3.9 4.8-10.2 6.2zm-12-7.3h3.1q13.6 0 13.6-10.4 0-9.8-13.2-9.8h-3.5v20.2z"/>
				<path class="s1" d="m1392.3 288.7v-63.6h13.4q9.6 0 15.1 1.9 6 1.8 10.8 6.3 9.9 9 9.9 23.6c0 9.7-3.4 17.7-10.3 23.7q-5.1 4.6-10.8 6.3-5.2 1.8-14.9 1.8c0 0-13.2 0-13.2 0zm9.6-9h4.3q6.5 0 10.8-1.4 4.3-1.4 7.7-4.6 7.1-6.4 7.1-16.8c0-6.9-2.3-12.6-7-17q-6.3-5.8-18.6-5.8h-4.3z"/>
				<path class="s1" d="m1600.9 234.6l-7.8 4.6q-2.1-3.8-4.1-5-2.1-1.3-5.3-1.3-4 0-6.7 2.3-2.6 2.2-2.6 5.6 0 4.6 6.9 7.5l6.3 2.6q7.8 3.1 11.4 7.6 3.6 4.5 3.6 11.1 0 8.8-5.9 14.5-5.9 5.8-14.6 5.8-8.3-0.1-13.7-4.9-5.3-5-6.6-13.8l9.7-2.2q0.6 5.6 2.3 7.8 3 4.1 8.6 4.1 4.5 0 7.5-3 3-3 3-7.7 0-1.8-0.5-3.4-0.6-1.5-1.7-2.8-1-1.3-2.8-2.4-1.7-1.2-4.1-2.2l-6.1-2.5q-13.1-5.6-13.1-16.2 0-7.2 5.5-12 5.5-4.8 13.6-4.8 11 0 17.2 10.7z"/>
			</g>
			<g>
				<g>
					<path class="s1" d="m119.4 203.1c-32.4 0-64-9.6-86.5-26.3-13.9-10.6-22.1-21.7-24.5-33.1l-2.2-10.4 8.6 6.3c10.7 7.8 23.6 12.2 34.9 16.2 16.8 5.6 36.5 10.5 53.8 14.7l2.3 0.6q4.7 1.2 9.5 2.4c16.6 4 33.9 8.3 50.3 14.6l10.3 4-10.5 3.7c-13.7 4.8-29.6 7.3-46 7.3z"/>
					<path class="s0" d="m0 123.8l4.4 20.7c2.6 12.4 11.4 24.3 26 35.5l0.1 0.1c23.2 17.2 55.6 27 88.9 27 16.8 0 33.2-2.6 47.4-7.5l20.9-7.3-20.7-8c-16.6-6.5-34-10.7-50.7-14.8q-4.8-1.2-9.5-2.4l-2.3-0.5c-17.2-4.3-36.8-9.1-53.4-14.7-11.1-3.8-23.7-8.2-33.9-15.6zm12.3 19c11 8 23.6 12.5 36.1 16.8 17.7 5.9 38.1 10.9 56.4 15.4 19.8 5 40 9.4 59.3 16.9-13.7 4.8-29.1 7.1-44.7 7.1-30.2 0-61.5-8.7-84.1-25.5-9.9-7.6-20.3-18.1-23-30.7z"/>
				</g>
				<g>
					<path class="s1" d="m94 253.6c-9 0-17.6-1.2-25.6-3.5-14.8-4.6-24.8-11.7-29.7-21.1l-3.7-7 7.9 1.1c3.6 0.5 7.5 0.8 11.8 0.8 4.9 0 9.7-0.3 14.8-0.7l2.2-0.1c8.6-0.6 17.9-1.4 27-2.2 5.1-0.5 10.2-0.9 15.1-1.3l3.5-0.3c10.6-0.8 21.5-1.6 32.4-1.6 3.5 0 6.8 0.1 10 0.2l8.2 0.5-5.3 6.2c-15 17.9-41.3 29-68.6 29q0 0 0 0z"/>
					<path class="s0" d="m149.7 213.6c-11 0-22 0.8-32.7 1.7l-3.5 0.2h-0.1c-4.9 0.4-10 0.9-15.1 1.3-9 0.8-18.3 1.6-26.9 2.2l-2.1 0.2c-5.1 0.3-9.8 0.6-14.6 0.6-4.1 0-7.8-0.2-11.2-0.7l-15.8-2.3 7.4 14.1c5.4 10.4 16.2 18.2 32.1 23.1h0.1c8.3 2.4 17.3 3.7 26.6 3.7 13.5 0 27.1-2.6 39.3-7.6 13.2-5.3 24.4-13.2 32.5-22.8l10.5-12.6-16.3-0.8c-3.3-0.2-6.7-0.3-10.2-0.3zm0 8.2q4.9 0 9.8 0.2c-15.3 18.2-41 27.5-65.6 27.5-8.4 0-16.7-1.1-24.3-3.3-10.5-3.3-22-8.9-27.3-19 4.2 0.6 8.3 0.8 12.4 0.8 5.7 0 11.5-0.5 17.2-0.8 13.6-1 28.6-2.4 42.2-3.5 11.8-0.9 23.6-1.9 35.6-1.9z"/>
				</g>
				<g>
					<path class="s1" d="m168.6 265.1c-4.1-31.1 8.3-70.9 16.8-90.1-35.6-5.6-86-29.8-91.9-32.6-20.1-9.7-37.1-22.4-50.4-37.6-14.1-16-19-29.1-20.4-34-1.7-5.7-1.8-9.7-0.3-12.3l2.7-4.5 3.7 3.8c42.7 43.8 153.6 88.4 202.2 88.4l8.8-0.1-4.9 6.5c-8.4 11.4-51.6 86.1-58.3 113l-5.2 20.9c0 0-2.8-21.4-2.8-21.4z"/>
					<path class="s0" d="m24.4 47.3l-5.5 9.1c-2.1 3.6-2.2 8.7-0.2 15.6 3.3 10.8 11.1 23.8 21.3 35.5 13.7 15.6 31.1 28.6 51.7 38.5 5.7 2.8 52.2 25.1 87.9 32.1-8.4 21-18.9 58-15 87.6l5.6 42.7 10.3-41.8c6.6-26.5 49.4-100.3 57.7-111.5l9.7-13.2-16.3 0.2h-0.6c-22.9 0-61.7-10.5-101.4-27.3-42.7-18.1-78.4-39.9-97.9-59.9 0 0-7.4-7.6-7.3-7.6zm1.5 13.3c43.9 45.1 155.7 89.6 205.1 89.6q0.3 0 0.6 0c-8.6 11.7-52.1 86.6-59 114.4-4.2-32 10.1-75.6 18.8-92.9-32-3.3-82-26.1-96.2-33-56.3-27.2-73.1-71.8-69.3-78.1z"/>
				</g>
			</g>
			<path class="s1" d="m552 316.2h1060.1v9.1h-1060.1z"/>
		</g>
	</g>
</svg>