<?xml version="1.0" encoding="UTF-8"?>
<svg id="Vrstva_2" data-name="Vrstva 2" xmlns="http://www.w3.org/2000/svg" viewBox="0 0 743.82 744.44">
  <defs>
    <style>
      .cls-1 {
        fill: #27285a;
      }

      .cls-1, .cls-2 {
        stroke-width: 0px;
      }

      .cls-2 {
        fill: #fff;
      }
    </style>
  </defs>
  <g id="Vrstva_1-2" data-name="Vrstva 1">
    <g>
      <g id="Obrys">
        <g>
          <path class="cls-1" d="M346.18,501.98c6.13,8.56,11.77,17.22,17.98,25.61,19.36,26.39,41.03,52.28,70.39,67.67,7.34,3.85,17.76,8.03,28.03,8.74-1.52,4.27-8.63,5.67-16.29,5.67-6.17,0-12.69-.91-16.96-1.97-39.92-10.79-71.09-45.74-80.6-84.39-1.65-7.01-2.69-14.12-2.55-21.34h0Z"/>
          <path class="cls-1" d="M325.58,527.2c14.8,16.39,26.75,35.41,39.9,52.72,6.3,8.45,12.76,16.62,19.74,24.45,7.27,8.05,14.88,15.87,24.33,21.75-1.88.33-3.76.48-5.65.48-10.43,0-20.83-4.66-29.4-9.99-29.22-19-48.84-55.41-48.91-89.4h0Z"/>
          <path class="cls-1" d="M311.61,547.34c7.93,13.72,13.87,28.69,20.25,42.88,2.98,6.78,5.98,13.46,9.17,20.17,3.43,7.11,6.9,14.13,11.96,20.48-.56.04-1.12.06-1.68.06-8.88,0-17.21-5.2-23.49-10.87-18.99-17.7-27.77-49.14-16.22-72.71h0Z"/>
        </g>
      </g>
      <circle class="cls-1" cx="366.51" cy="377.55" r="209.22"/>
      <g>
        <g>
          <path class="cls-2" d="M445.22,613.98c-6.96,0-13.57-1.38-16.89-2.21-39.84-10.77-73.42-45.9-83.65-87.45-1.94-8.22-2.81-15.54-2.67-22.42l.24-12.59,7.34,10.24c2.62,3.66,5.19,7.39,7.67,10.99,3.32,4.82,6.74,9.8,10.28,14.57,22.01,30,44.62,51.76,69.14,66.55,6.24,3.52,13.75,6.95,26.33,8.19l8.21.81-5.51,6.14c-4.27,4.76-11.16,7.18-20.48,7.18Z"/>
          <path class="cls-1" d="M346.18,501.98c6.13,8.56,11.77,17.22,17.98,25.61,19.36,26.39,42,50.56,70.39,67.67,7.55,4.27,15.64,7.52,28.03,8.74-3.92,4.37-10.58,5.79-17.37,5.79-5.71,0-11.51-1-15.88-2.09-39.92-10.79-71.09-45.74-80.6-84.39-1.65-7.01-2.69-14.12-2.55-21.34M338.31,476.63l-.48,25.19c-.14,7.23.77,14.89,2.78,23.41v.04s.02.04.02.04c5.1,20.72,15.79,40.21,30.92,56.36,15.64,16.7,34.88,28.5,55.62,34.11l.08.02.08.02c3.5.87,10.49,2.33,17.9,2.33,10.56,0,18.49-2.88,23.59-8.57l11.02-12.28-16.42-1.62c-11.78-1.16-18.81-4.35-24.63-7.64-24.02-14.5-46.22-35.89-67.87-65.4-3.52-4.75-6.77-9.48-10.22-14.49-2.49-3.62-5.06-7.36-7.71-11.05l-14.67-20.48h0Z"/>
        </g>
        <g>
          <path class="cls-2" d="M403.89,630.78c-9.65,0-20.29-3.57-31.61-10.62-30.38-19.75-50.8-57.08-50.88-92.94l-.02-10.9,7.31,8.09c9.94,11.01,18.66,23.24,27.08,35.06,4.24,5.95,8.63,12.11,13.05,17.93,7.16,9.59,13.35,17.27,19.53,24.2,6.39,7.08,14.02,15.14,23.41,20.98l9.3,5.78-10.79,1.89c-2.06.36-4.2.54-6.37.54Z"/>
          <path class="cls-1" d="M325.58,527.2c14.8,16.39,26.75,35.41,39.9,52.72,6.3,8.45,12.76,16.62,19.74,24.45,7.27,8.05,14.88,15.87,24.33,21.75-1.88.33-3.76.48-5.65.48-10.43,0-20.83-4.66-29.4-9.99-29.22-19-48.84-55.41-48.91-89.4M317.17,505.41l.05,21.81c.08,37.21,21.27,75.95,52.72,96.4l.07.04.07.04c11.99,7.47,23.37,11.25,33.82,11.25,2.41,0,4.79-.2,7.09-.61l21.57-3.77-18.59-11.56c-8.92-5.55-16.3-13.35-22.52-20.23-6.08-6.82-12.2-14.41-19.26-23.86l-.02-.03-.02-.03c-4.38-5.77-8.75-11.9-12.97-17.82-8.49-11.92-17.28-24.25-27.38-35.44l-14.61-16.18h0Z"/>
        </g>
        <g>
          <path class="cls-2" d="M351.32,635.11c-10.79,0-20.25-6.5-26.29-11.95-21.63-20.17-29-53.53-17.17-77.66l3.45-7.04,3.92,6.79c6.18,10.69,11.17,22.12,16,33.18,1.48,3.39,2.95,6.75,4.44,10.08,2.61,5.92,5.72,12.92,9.14,20.08,3.68,7.61,6.86,13.91,11.45,19.67l4.93,6.18-7.88.59c-.66.05-1.33.07-1.99.07Z"/>
          <path class="cls-1" d="M311.61,547.34c7.93,13.72,13.87,28.69,20.25,42.88,2.98,6.78,5.98,13.46,9.17,20.17,3.43,7.11,6.9,14.13,11.96,20.48-.56.04-1.12.06-1.68.06-8.88,0-17.21-5.2-23.49-10.87-18.99-17.7-27.77-49.14-16.22-72.71M311,529.58l-6.9,14.08c-6.31,12.87-7.72,28.57-3.97,44.19,3.55,14.8,11.36,28.41,21.99,38.32l.05.05.05.05c6.58,5.94,16.98,13.03,29.09,13.03.77,0,1.54-.03,2.3-.09l15.77-1.19-9.86-12.37c-4.32-5.42-7.4-11.51-10.97-18.9-3.37-7.09-6.47-14.04-9.05-19.9v-.03s-.03-.03-.03-.03c-1.48-3.3-2.98-6.73-4.43-10.04-4.87-11.16-9.91-22.7-16.21-33.59l-7.85-13.57h0Z"/>
        </g>
      </g>
      <path class="cls-2" d="M470.39,260.49c-3.63-3.5-18.25-14.99-49.2-9.67-32.65,5.61-51.11,31.6-51.88,32.71l-5.61,8.04,9.03-3.8c11.16-4.7,22.16-9.01,28.99-11.64-1.15,2.61-2.41,5.92-3.54,9.85-2.32,8.1-8.78,25.08-26.08,47.81-7.75,10.19-41.93,71.27-64.62,138.69-4.71,13.99-14.31,66.85-14.31,68.48v9.55l5.21-8c.19-.29,18.69-28.69,21.37-32.61,29.94-43.91,58.1-57.68,80.72-68.75,13.66-6.68,25.47-12.46,34.46-23.22,37.54-44.92,29.09-84.55,25.03-103.6-.78-3.65-1.66-7.79-1.34-8.82,9.99-30.11,33.58-38.31,33.91-38.42l14.56-4.76-36.71-1.83Z"/>
      <g>
        <g>
          <path class="cls-2" d="M240.62,376.61c-33.31,0-65.66-9.82-88.75-26.94-14.23-10.86-22.67-22.28-25.15-33.97l-2.26-10.65,8.81,6.41c11.03,8.03,24.23,12.59,35.88,16.61,17.21,5.79,37.38,10.77,55.18,15.17l2.29.56c3.26.81,6.51,1.61,9.76,2.41,17.07,4.19,34.72,8.52,51.56,15.05l10.61,4.12-10.75,3.73c-14.12,4.9-30.44,7.5-47.17,7.5h0Z"/>
          <path class="cls-1" d="M130.81,314.84c11.21,8.16,24.11,12.74,36.97,17.18,18.14,6.1,39.07,11.2,57.83,15.84,20.36,5.1,41.08,9.64,60.81,17.3-14.04,4.87-29.77,7.26-45.81,7.26-30.96,0-63.07-8.92-86.26-26.11-10.19-7.78-20.81-18.55-23.55-31.47M118.12,295.27l4.51,21.31c2.69,12.7,11.66,24.94,26.66,36.39l.05.04.05.04c23.79,17.64,57.05,27.76,91.24,27.76,17.2,0,33.99-2.67,48.55-7.73l21.5-7.46-21.22-8.23c-17.09-6.63-34.88-10.99-52.07-15.21-3.25-.8-6.5-1.59-9.74-2.4l-2.32-.57c-17.71-4.37-37.78-9.33-54.84-15.07-11.36-3.93-24.23-8.38-34.75-16.03l-17.61-12.81h0Z"/>
        </g>
        <g>
          <path class="cls-2" d="M214.5,428.42c-9.19,0-17.99-1.21-26.17-3.59-15.23-4.7-25.46-11.97-30.49-21.6l-3.79-7.25,8.1,1.18c3.69.54,7.64.8,12.09.8,5.04,0,9.98-.32,15.22-.66l2.22-.14c8.82-.64,18.37-1.47,27.62-2.28,5.27-.46,10.49-.91,15.52-1.33l3.66-.28c10.83-.82,22.04-1.68,33.21-1.68,3.54,0,6.99.09,10.25.26l8.38.44-5.4,6.42c-15.4,18.32-42.38,29.7-70.41,29.7,0,0,0,0,0,0Z"/>
          <path class="cls-1" d="M271.67,395.77c3.34,0,6.68.08,10.03.25-15.64,18.61-42.05,28.21-67.21,28.21-8.64,0-17.14-1.13-25-3.42-10.75-3.32-22.5-9.07-27.96-19.52,4.26.62,8.49.84,12.69.84,5.91,0,11.79-.44,17.7-.81,13.89-1.01,29.26-2.46,43.21-3.61,12.1-.91,24.29-1.94,36.53-1.94M271.67,387.41c-11.33,0-22.61.86-33.53,1.69l-3.63.28h-.03s-.03,0-.03,0c-5.04.42-10.37.88-15.53,1.33-9.22.8-18.75,1.63-27.57,2.27l-2.18.14c-5.16.34-10.04.65-14.94.65-4.24,0-8-.25-11.48-.76l-16.19-2.36,7.57,14.51c5.57,10.66,16.64,18.62,32.9,23.64l.06.02.06.02c8.56,2.49,17.75,3.76,27.34,3.76,13.84,0,27.77-2.67,40.3-7.74,13.46-5.44,24.97-13.55,33.3-23.46l10.79-12.84-16.75-.89c-3.33-.18-6.85-.27-10.47-.27h0Z"/>
        </g>
        <g>
          <path class="cls-2" d="M291.04,440.24c-4.2-31.9,8.53-72.71,17.2-92.44-36.52-5.75-88.2-30.52-94.26-33.47-20.59-9.95-37.98-22.9-51.66-38.49-14.42-16.44-19.47-29.9-20.97-34.92-1.74-5.83-1.82-9.94-.25-12.57l2.79-4.66,3.79,3.89c43.78,44.96,157.55,90.64,207.36,90.64l8.98-.06-4.96,6.72c-8.62,11.69-52.98,88.28-59.82,115.83l-5.32,21.43-2.88-21.89Z"/>
          <path class="cls-1" d="M144.69,230.5c45.02,46.24,159.71,91.9,210.35,91.9.22,0,.44,0,.66,0-8.84,11.99-53.44,88.81-60.52,117.3-4.32-32.84,10.34-77.56,19.26-95.3-32.8-3.38-84.09-26.76-98.64-33.83-57.77-27.9-75.01-73.59-71.12-80.08M143.1,216.88l-5.58,9.32c-2.21,3.69-2.27,8.9-.17,15.92,3.34,11.17,11.3,24.46,21.84,36.48,14.05,16.02,31.88,29.31,52.99,39.51,5.82,2.83,53.53,25.7,90.2,32.9-8.66,21.52-19.46,59.5-15.47,89.79l5.76,43.78,10.64-42.86c6.73-27.12,50.6-102.79,59.13-114.35l9.93-13.46-16.72.13h-.6c-23.43,0-63.29-10.71-104.03-27.95-43.81-18.54-80.38-40.93-100.33-61.42l-7.58-7.78h0Z"/>
        </g>
      </g>
      <g>
        <path class="cls-1" d="M133.39,79.77l64.61,77.04-20.03,16.79-64.61-77.04,20.03-16.79Z"/>
        <path class="cls-1" d="M207.92,144.54l-40.98-91.81,23.87-10.65,69.14,36.46-25.06-56.13,23.75-10.6,40.98,91.81-23.75,10.6-69.14-36.46,25.06,56.14-23.87,10.65Z"/>
        <path class="cls-1" d="M308.7,1.65L347.34.04c6.84-.28,13.31.83,19.42,3.33,6.11,2.51,11.5,5.95,16.18,10.34,4.67,4.39,8.43,9.57,11.26,15.55,2.83,5.98,4.38,12.3,4.66,18.96.27,6.57-.73,12.96-3.01,19.14-2.28,6.19-5.57,11.69-9.86,16.49-4.29,4.81-9.38,8.71-15.26,11.71-5.88,3-12.28,4.65-19.21,4.94l-38.64,1.61-4.18-100.46ZM338.07,78.91l6-.25c4.53-.19,8.54-1.07,12.04-2.64,3.49-1.57,6.41-3.65,8.75-6.24,2.34-2.59,4.08-5.62,5.23-9.09,1.14-3.47,1.63-7.25,1.46-11.34-.17-4-.99-7.7-2.46-11.11-1.48-3.41-3.49-6.3-6.03-8.69-2.55-2.39-5.63-4.21-9.24-5.49-3.61-1.27-7.64-1.82-12.08-1.63l-6,.25,2.34,56.22Z"/>
        <path class="cls-1" d="M486.06,41.13l-30.04-7.92-4.29,16.25,28.37,7.48-5.65,21.4-28.37-7.48-4.42,16.76,30.04,7.93-5.65,21.4-55.31-14.59,25.65-97.22,55.31,14.59-5.65,21.4Z"/>
        <path class="cls-1" d="M500.56,134.51l-22.5-13.3,51.17-86.55,35.81,21.17c9.72,5.75,15.67,12.67,17.85,20.78,2.18,8.1.55,16.75-4.87,25.93-5.43,9.18-12.22,14.77-20.37,16.77-8.15,2-17.09.12-26.8-5.62l-13.32-7.87-16.97,28.7ZM528.25,87.68l7.46,4.41c8.26,4.89,14.52,3.73,18.78-3.46,4.25-7.19,2.25-13.23-6.02-18.12l-7.46-4.41-12.76,21.58Z"/>
        <path class="cls-1" d="M645.04,154.13l-21.37-22.55-12.19,11.56,20.18,21.29-16.07,15.23-20.18-21.29-12.58,11.93,21.37,22.55-16.06,15.23-39.35-41.52,72.97-69.17,39.35,41.52-16.07,15.23Z"/>
        <path class="cls-1" d="M597.49,216.03l91.29-42.13,10.95,23.73-35.59,69.59,55.82-25.76,10.9,23.61-91.29,42.13-10.9-23.61,35.59-69.59-55.81,25.76-10.95-23.73Z"/>
        <path class="cls-1" d="M741.65,314.99l2.1,38.61c.37,6.83-.66,13.32-3.08,19.46-2.43,6.14-5.8,11.58-10.13,16.31-4.33,4.73-9.46,8.55-15.4,11.46-5.94,2.9-12.24,4.54-18.9,4.9-6.57.36-12.96-.56-19.18-2.76s-11.76-5.42-16.62-9.65c-4.86-4.23-8.83-9.27-11.91-15.11-3.08-5.84-4.8-12.23-5.18-19.15l-2.1-38.61,100.4-5.46ZM664.77,345.34l.33,5.99c.25,4.53,1.17,8.53,2.79,12,1.61,3.47,3.73,6.36,6.35,8.67,2.62,2.3,5.67,4.01,9.16,5.11,3.49,1.1,7.27,1.54,11.36,1.32,4-.22,7.69-1.08,11.08-2.61,3.39-1.52,6.26-3.57,8.61-6.14,2.35-2.58,4.14-5.68,5.37-9.31,1.22-3.63,1.72-7.66,1.48-12.1l-.33-5.99-56.19,3.05Z"/>
        <path class="cls-1" d="M704.43,492.81l7.54-30.14-16.3-4.08-7.12,28.46-21.47-5.38,7.12-28.46-16.82-4.21-7.54,30.14-21.47-5.38,13.89-55.49,97.53,24.42-13.89,55.49-21.47-5.38Z"/>
        <path class="cls-1" d="M626.75,485.96l84.48,54.52-14.17,21.96-77.83,7.23,51.65,33.33-14.1,21.85-84.48-54.52,14.1-21.85,77.83-7.23-51.65-33.33,14.17-21.96Z"/>
        <path class="cls-1" d="M579.17,663.12l-49.05-61.17,20.39-16.35,49.05,61.17,16.75-13.43,13.85,17.27-53.89,43.21-13.85-17.27,16.75-13.43Z"/>
      </g>
      <g>
        <path class="cls-1" d="M71.31,193.7l-27.13,1.71,5.1-8.04,25.73-1.13.75-1.19-17.84-11.31,4.17-6.58,43.58,27.64-4.89,7.71c-3.65,5.76-7.37,9.23-11.16,10.42-4.2,1.29-8.27.69-12.22-1.82-3.09-1.96-5.18-4.53-6.28-7.7-1.1-3.18-1.04-6.41.18-9.7ZM81.5,188.68l-1.32,2.09c-3.95,6.23-3.55,10.85,1.21,13.87,4.46,2.83,8.61,1.21,12.45-4.85l1.49-2.34-13.83-8.77Z"/>
        <path class="cls-1" d="M43.55,333.71l3.74-20.35-12.19-2.24-3.63,19.76-7.2-1.32,3.63-19.75-16.96-3.12-3.74,20.35-7.2-1.32,5.15-28.01,50.75,9.33-5.15,28.01-7.2-1.32Z"/>
        <path class="cls-1" d="M57.07,464.97l-9.02,1.94c2.73-5.19,3.59-10.14,2.58-14.85-1.12-5.18-3.92-9.15-8.41-11.9-4.47-2.77-9.39-3.58-14.75-2.43-5.29,1.14-9.37,3.89-12.24,8.25-2.87,4.36-3.74,9.13-2.62,14.31.58,2.68,1.5,4.86,2.78,6.55.66.95,1.48,1.91,2.47,2.87.98.96,2.13,1.95,3.44,2.97l-9.18,1.98c-3.4-3.83-5.62-8.13-6.65-12.93-1.55-7.21-.36-13.91,3.57-20.09,3.98-6.17,9.55-10.03,16.72-11.57,6.42-1.38,12.61-.5,18.56,2.67,7.29,3.9,11.83,10,13.62,18.3.98,4.53.69,9.17-.86,13.93Z"/>
        <path class="cls-1" d="M74.31,560.68c5.84-4.32,12.43-5.9,19.79-4.72,7.35,1.16,13.23,4.72,17.67,10.7,4.38,5.91,6.02,12.54,4.92,19.9-1.08,7.37-4.58,13.26-10.51,17.65-5.96,4.42-12.6,6.03-19.91,4.85-7.34-1.19-13.25-4.81-17.74-10.86-3.97-5.35-5.67-11.53-5.13-18.54.62-7.73,4.26-14.05,10.9-18.97ZM78.9,567.05c-4.58,3.4-7.21,7.73-7.88,13-.69,5.25.46,9.88,3.43,13.89,3.22,4.35,7.45,6.91,12.67,7.67,5.26.73,10.07-.52,14.44-3.75,4.42-3.28,7.03-7.5,7.83-12.67.83-5.17-.36-9.91-3.57-14.25-3.2-4.32-7.4-6.84-12.61-7.59-5.17-.77-9.94.46-14.31,3.7Z"/>
        <path class="cls-1" d="M197.66,681.58l3.04,27.01-8.28-4.7-2.39-25.64-1.22-.69-10.42,18.37-6.77-3.84,25.47-44.88,7.94,4.5c5.93,3.37,9.58,6.91,10.95,10.63,1.5,4.13,1.09,8.23-1.21,12.3-1.8,3.18-4.26,5.39-7.38,6.65-3.12,1.25-6.35,1.35-9.7.3ZM192.15,671.65l2.15,1.22c6.41,3.64,11.01,3.01,13.79-1.89,2.61-4.59.79-8.66-5.45-12.2l-2.41-1.37-8.08,14.24Z"/>
        <path class="cls-1" d="M305.23,742.76l5.93-51.26,10.76,1.25c5.16.6,9.17,1.58,12.04,2.94,3.09,1.37,5.81,3.4,8.14,6.09,4.73,5.44,6.64,12.08,5.73,19.94-.91,7.88-4.41,13.94-10.48,18.17-3.05,2.11-6.14,3.47-9.29,4.07-2.94.62-7.02.63-12.22.03l-10.62-1.23ZM313.81,736.39l3.49.4c3.47.4,6.4.37,8.79-.09,2.39-.51,4.61-1.5,6.67-2.96,4.21-3.03,6.64-7.34,7.28-12.92.65-5.62-.7-10.4-4.06-14.33-3.03-3.51-7.84-5.65-14.43-6.41l-3.49-.4-4.25,36.72Z"/>
        <path class="cls-1" d="M472.11,686.18l-5.03,5.35c-1.71-1.64-3.16-2.61-4.36-2.91-1.27-.37-2.75-.32-4.44.17-2.08.6-3.63,1.69-4.66,3.26-1.03,1.55-1.3,3.21-.79,4.96.7,2.42,3.06,3.84,7.09,4.28l5.53.59c4.49.46,8.01,1.59,10.55,3.4,2.54,1.8,4.3,4.41,5.29,7.81,1.32,4.56.89,8.77-1.28,12.62-2.19,3.88-5.55,6.48-10.09,7.8-4.3,1.25-8.22,1-11.76-.73-3.5-1.75-6.26-4.83-8.29-9.26l7.09-3.87c1.19,2.81,2.37,4.65,3.55,5.51,2.16,1.69,4.72,2.11,7.67,1.26,2.33-.68,4.04-2.02,5.13-4.03,1.09-2.01,1.28-4.21.59-6.61-.28-.96-.67-1.81-1.17-2.53-.5-.72-1.13-1.34-1.89-1.85-.76-.51-1.68-.93-2.75-1.26-1.07-.33-2.3-.58-3.7-.75l-5.36-.6c-7.62-.9-12.22-4.11-13.82-9.63-1.08-3.72-.56-7.25,1.56-10.58,2.11-3.35,5.29-5.64,9.53-6.87,5.71-1.66,10.98-.17,15.81,4.46Z"/>
      </g>
    </g>
  </g>
</svg>